<svg version="1.1" viewBox="0.0 0.0 1790.5039370078741 528.2913385826772" fill="none" stroke="none" stroke-linecap="square" stroke-miterlimit="10" xmlns:xlink="http://www.w3.org/1999/xlink" xmlns="http://www.w3.org/2000/svg"><clipPath id="p.0"><path d="m0 0l1790.5039 0l0 528.2913l-1790.5039 0l0 -528.2913z" clip-rule="nonzero"/></clipPath><g clip-path="url(#p.0)"><path fill="#000000" fill-opacity="0.0" d="m0 0l1790.5039 0l0 528.2913l-1790.5039 0z" fill-rule="evenodd"/><path fill="#b7b7b7" d="m283.9541 391.91324l-24.05774 25.747864c-6.1035156E-5 6.1035156E-5 -1.2207031E-4 9.1552734E-5 -2.1362305E-4 9.1552734E-5c-9.1552734E-5 0 -1.8310547E-4 -3.0517578E-5 -2.4414062E-4 -9.1552734E-5l-23.175293 -24.80307c-2.5599823 -2.7397156 -2.5600128 -7.181732 -7.6293945E-5 -9.921539l24.057724 -25.747833l0 0c1.5258789E-4 -1.5258789E-4 3.6621094E-4 -1.5258789E-4 4.8828125E-4 0l23.175293 24.80304l0 0c2.559967 2.739746 2.5599976 7.1817627 6.1035156E-5 9.921539z" fill-rule="evenodd"/><path fill="#b7b7b7" d="m481.21658 443.69278l-24.05774 25.747833c-6.1035156E-5 9.1552734E-5 -1.5258789E-4 1.2207031E-4 -2.4414062E-4 1.2207031E-4c-9.1552734E-5 0 -1.8310547E-4 -3.0517578E-5 -2.4414062E-4 -1.2207031E-4l-23.175262 -24.80304c-2.5599976 -2.739746 -2.560028 -7.1817627 -9.1552734E-5 -9.921539l24.05774 -25.747864l0 0c1.2207031E-4 -1.2207031E-4 3.3569336E-4 -1.2207031E-4 4.5776367E-4 0l23.175293 24.80307l0 0c2.5599976 2.7397156 2.560028 7.1817627 9.1552734E-5 9.921539z" fill-rule="evenodd"/><path fill="#b7b7b7" d="m585.19556 231.43031l-24.05774 25.747849c-6.1035156E-5 6.1035156E-5 -1.2207031E-4 9.1552734E-5 -1.8310547E-4 9.1552734E-5c-1.2207031E-4 0 -1.8310547E-4 -3.0517578E-5 -2.4414062E-4 -9.1552734E-5l-23.175293 -24.803055c-2.5599976 -2.7397308 -2.5600586 -7.1817627 -1.2207031E-4 -9.921539l24.05774 -25.747849l0 0c1.8310547E-4 -1.373291E-4 3.6621094E-4 -1.373291E-4 4.8828125E-4 0l23.175293 24.803055l0 0c2.5599976 2.7397308 2.5599976 7.1817474 6.1035156E-5 9.921539z" fill-rule="evenodd"/><path fill="#b7b7b7" d="m322.18246 203.03136l-24.05774 25.747849c-6.1035156E-5 7.6293945E-5 -1.5258789E-4 1.0681152E-4 -2.4414062E-4 1.0681152E-4c-9.1552734E-5 0 -1.8310547E-4 -3.0517578E-5 -2.4414062E-4 -1.0681152E-4l-23.175262 -24.803055c-2.5599976 -2.7397308 -2.560028 -7.1817474 -9.1552734E-5 -9.921539l24.05774 -25.747849l0 0c1.2207031E-4 -1.373291E-4 3.3569336E-4 -1.373291E-4 4.5776367E-4 0l23.175293 24.803055l0 0c2.5599976 2.7397308 2.560028 7.1817627 9.1552734E-5 9.921539z" fill-rule="evenodd"/><path fill="#b7b7b7" d="m775.0237 323.0261l-24.05774 25.747864c-6.1035156E-5 6.1035156E-5 -1.8310547E-4 1.2207031E-4 -2.4414062E-4 1.2207031E-4c-1.2207031E-4 0 -1.8310547E-4 -6.1035156E-5 -2.4414062E-4 -1.2207031E-4l-23.175293 -24.80304c-2.5599976 -2.739746 -2.5599976 -7.1817627 -6.1035156E-5 -9.921539l24.05774 -25.747864l0 0c1.2207031E-4 -1.5258789E-4 3.0517578E-4 -1.5258789E-4 4.8828125E-4 0l23.175232 24.80304l0 0c2.5599976 2.739746 2.5600586 7.1817627 1.2207031E-4 9.921539z" fill-rule="evenodd"/><path fill="#b7b7b7" d="m622.78485 192.78201l-24.05774 25.747849c-6.1035156E-5 7.6293945E-5 -1.8310547E-4 1.0681152E-4 -2.4414062E-4 1.0681152E-4c-1.2207031E-4 0 -1.8310547E-4 -3.0517578E-5 -2.4414062E-4 -1.0681152E-4l-23.175293 -24.803055c-2.5599976 -2.7397308 -2.5600586 -7.1817474 -6.1035156E-5 -9.921539l24.057678 -25.747849l0 0c1.8310547E-4 -1.373291E-4 3.6621094E-4 -1.373291E-4 4.8828125E-4 0l23.175293 24.803055l0 0c2.5599976 2.7397308 2.5600586 7.1817627 1.2207031E-4 9.921539z" fill-rule="evenodd"/><path fill="#b7b7b7" d="m929.47906 114.406685l-24.05774 25.747856c-6.1035156E-5 6.1035156E-5 -1.8310547E-4 1.0681152E-4 -2.4414062E-4 1.0681152E-4c-1.2207031E-4 0 -1.8310547E-4 -4.5776367E-5 -2.4414062E-4 -1.0681152E-4l-23.175293 -24.803055c-2.5599976 -2.7397385 -2.5599976 -7.1817627 -6.1035156E-5 -9.921539l24.05774 -25.747856l0 0c1.2207031E-4 -1.373291E-4 3.0517578E-4 -1.373291E-4 4.272461E-4 0l23.175293 24.803055l0 0c2.5599976 2.7397308 2.5600586 7.181755 1.2207031E-4 9.921539z" fill-rule="evenodd"/><path fill="#b7b7b7" d="m966.2927 71.947365l-24.05774 25.747856c-6.1035156E-5 6.1035156E-5 -1.8310547E-4 9.918213E-5 -2.4414062E-4 9.918213E-5c-1.2207031E-4 0 -1.8310547E-4 -3.8146973E-5 -2.4414062E-4 -9.918213E-5l-23.175293 -24.803055c-2.5599976 -2.7397308 -2.5600586 -7.181755 -6.1035156E-5 -9.921539l24.057678 -25.747849l0 0c1.8310547E-4 -1.411438E-4 3.6621094E-4 -1.411438E-4 4.8828125E-4 0l23.175293 24.803047l0 0c2.5599976 2.7397385 2.5600586 7.1817627 1.2207031E-4 9.921539z" fill-rule="evenodd"/><path fill="#b7b7b7" d="m812.2875 364.7164l-24.05774 25.747833c-6.1035156E-5 9.1552734E-5 -1.8310547E-4 1.2207031E-4 -2.4414062E-4 1.2207031E-4c-1.2207031E-4 0 -1.8310547E-4 -3.0517578E-5 -2.4414062E-4 -1.2207031E-4l-23.175293 -24.80304c-2.5599976 -2.739746 -2.5600586 -7.1817627 -6.1035156E-5 -9.921539l24.057678 -25.747864l0 0c1.8310547E-4 -1.2207031E-4 3.6621094E-4 -1.2207031E-4 4.8828125E-4 0l23.175293 24.80307l0 0c2.5599976 2.7397156 2.5600586 7.1817627 1.2207031E-4 9.921539z" fill-rule="evenodd"/><path fill="#999999" d="m1734.5981 119.03542l15.826782 13.811028l0.9736328 28.664154l-50.56421 50.564194l0 0l-15.826782 -13.81102l-0.9736328 -28.66417l50.56421 -50.564186z" fill-rule="evenodd"/><path fill="#999999" d="m1620.4094 148.78894l23.175781 -26.509071l9.61499 -0.32217407l68.847046 68.84701l0 0l-23.175781 26.509079l-9.61499 0.3221588l-68.847046 -68.847z" fill-rule="evenodd"/><path fill="#999999" d="m1487.4431 228.39235l21.08667 -1.4173279l21.086548 19.716873l0 97.3855l0 0l-21.086548 1.4173279l-21.08667 -19.716888l0 -97.38548z" fill-rule="evenodd"/><path fill="#999999" d="m1495.8503 341.83328l-13.82666 15.826752l0 0l-61.706543 -61.706482l-1.0336914 -30.687225l13.826782 -15.826752l0 0l61.706543 61.70645z" fill-rule="evenodd"/><path fill="#999999" d="m1587.2408 118.2575l9.87915 9.879158l0 9.879471l-148.87122 148.87129l-29.637817 0l-9.87915 -9.879181l0 -9.879456l148.87122 -148.87128z" fill-rule="evenodd"/><path fill="#999999" d="m1692.3114 343.72076l-23.044556 26.377869l-9.562622 0.32208252l-139.83374 -139.8338l0 0l23.044556 -26.377853l9.5625 -0.32211304l139.83386 139.83382z" fill-rule="evenodd"/><path fill="#999999" d="m1600.0726 144.12206l26.509033 23.17575l0.32214355 9.615036l-78.83118 78.83125l0 0l-26.509155 -23.17575l-0.32214355 -9.615036l78.8313 -78.83125z" fill-rule="evenodd"/><path fill="#999999" d="m1668.962 206.44226l15.905518 13.905502l0.96655273 28.844528l-72.62012 72.620056l0 0l-15.905518 -13.905518l-0.96643066 -28.844543l72.619995 -72.620026z" fill-rule="evenodd"/><path fill="#999999" d="m1635.0542 174.86746l15.905518 13.905502l0.96655273 28.844543l-68.87207 68.871994l0 0l-15.905518 -13.905518l-0.96643066 -28.844528l68.87195 -68.871994z" fill-rule="evenodd"/><path fill="#b7b7b7" d="m1752.9712 237.45525l-24.05774 25.747849c-1.2207031E-4 6.1035156E-5 -1.2207031E-4 9.1552734E-5 -2.4414062E-4 9.1552734E-5c-1.2207031E-4 0 -2.4414062E-4 -3.0517578E-5 -2.4414062E-4 -9.1552734E-5l-23.175293 -24.803055c-2.5599365 -2.7397308 -2.5600586 -7.1817627 -1.2207031E-4 -9.921539l24.05774 -25.747849l0 0c1.2207031E-4 -1.373291E-4 3.6621094E-4 -1.373291E-4 4.8828125E-4 0l23.175293 24.803055l0 0c2.5600586 2.7397308 2.5600586 7.1817474 1.2207031E-4 9.921539z" fill-rule="evenodd"/><path fill="#b7b7b7" d="m1786.235 274.48935l-24.05774 25.747864c-1.2207031E-4 6.1035156E-5 -1.2207031E-4 9.1552734E-5 -2.4414062E-4 9.1552734E-5c-1.2207031E-4 0 -2.4414062E-4 -3.0517578E-5 -2.4414062E-4 -9.1552734E-5l-23.175293 -24.80304c-2.5599365 -2.739746 -2.5600586 -7.1817627 -1.2207031E-4 -9.921539l24.05774 -25.747864l0 0c1.2207031E-4 -1.373291E-4 3.6621094E-4 -1.373291E-4 4.8828125E-4 0l23.175293 24.80304l0 0c2.5599365 2.739746 2.5600586 7.1817627 1.2207031E-4 9.921539z" fill-rule="evenodd"/><defs><radialGradient id="p.1" gradientUnits="userSpaceOnUse" gradientTransform="matrix(-4.392040658540855 4.700592364482015 -4.700592364482015 -4.392040658540855 0.0 0.0)" spreadMethod="pad" cx="-125.81640296782783" cy="-196.1303826517739" fx="-125.81640296782783" fy="-196.1303826517739" r="4.700592517852783"><stop offset="0.0" stop-color="#4d4d4d"/><stop offset="1.0" stop-color="#000000"/></radialGradient></defs><path fill="url(#p.1)" d="m1498.1365 274.48935l-24.05774 25.747864c0 6.1035156E-5 -1.2207031E-4 9.1552734E-5 -1.2207031E-4 9.1552734E-5c-1.2207031E-4 0 -2.4414062E-4 -3.0517578E-5 -2.4414062E-4 -9.1552734E-5l-23.175293 -24.80304c-2.5600586 -2.739746 -2.5600586 -7.1817627 -1.2207031E-4 -9.921539l24.05774 -25.747864l0 0c1.2207031E-4 -1.373291E-4 3.6621094E-4 -1.373291E-4 4.8828125E-4 0l23.175293 24.80304l0 0c2.5599365 2.739746 2.5599365 7.1817627 0 9.921539z" fill-rule="evenodd"/><path fill="#b7b7b7" d="m1589.521 333.16916l-24.05774 25.747833c0 9.1552734E-5 -1.2207031E-4 1.2207031E-4 -2.4414062E-4 1.2207031E-4c0 0 -1.2207031E-4 -3.0517578E-5 -2.4414062E-4 -1.2207031E-4l-23.17517 -24.80304c-2.5600586 -2.739746 -2.5600586 -7.1817627 -1.2207031E-4 -9.921539l24.05774 -25.747864l0 0c1.2207031E-4 -1.2207031E-4 3.6621094E-4 -1.2207031E-4 4.8828125E-4 0l23.175293 24.80307l0 0c2.5599365 2.7397156 2.5599365 7.1817627 0 9.921539z" fill-rule="evenodd"/><path fill="#999999" d="m148.65616 409.24957l-24.278114 25.984161c-6.1035156E-5 6.1035156E-5 -1.449585E-4 9.1552734E-5 -2.3651123E-4 9.1552734E-5c-9.1552734E-5 0 -1.8310547E-4 -3.0517578E-5 -2.4414062E-4 -9.1552734E-5l-119.52203 -127.936615c-2.681581 -2.8703613 -2.681443 -7.5240173 3.080368E-4 -10.394226l24.278118 -25.98413l0 0c1.335144E-4 -1.5258789E-4 3.5095215E-4 -1.5258789E-4 4.8446655E-4 0l119.52204 127.936615l0 0c2.6815796 2.8703613 2.6814423 7.523987 -3.2043457E-4 10.394196z" fill-rule="evenodd"/><path fill="#999999" d="m234.48332 419.69504l-24.278122 25.98413c-6.1035156E-5 6.1035156E-5 -1.5258789E-4 1.2207031E-4 -2.4414062E-4 1.2207031E-4c-9.1552734E-5 0 -1.8310547E-4 -6.1035156E-5 -2.4414062E-4 -1.2207031E-4l-129.28592 -138.39322c-2.6815186 -2.8703918 -2.6813354 -7.5240784 4.119873E-4 -10.394287l24.278122 -25.98413l0 0c1.296997E-4 -1.5258789E-4 3.5095215E-4 -1.5258789E-4 4.8065186E-4 0l129.28592 138.39319l0 0c2.6815338 2.8704224 2.6813507 7.524109 -3.9672852E-4 10.394318z" fill-rule="evenodd"/><path fill="#999999" d="m264.3116 215.30148l24.278107 25.984146c6.1035156E-5 7.6293945E-5 1.2207031E-4 1.6784668E-4 1.2207031E-4 2.593994E-4c0 1.0681152E-4 -6.1035156E-5 1.9836426E-4 -1.2207031E-4 2.593994E-4l-129.28639 138.39268c-2.6815186 2.8704224 -7.029312 2.8706055 -9.711075 3.9672852E-4l-24.278114 -25.984161l0 0c-1.296997E-4 -1.2207031E-4 -1.296997E-4 -3.6621094E-4 0 -5.187988E-4l129.2864 -138.39268l0 0c2.6815338 -2.870407 7.029312 -2.870575 9.711075 -3.8146973E-4z" fill-rule="evenodd"/><path fill="#999999" d="m239.84262 136.73769l24.278107 25.984146c9.1552734E-5 7.6293945E-5 1.2207031E-4 1.6784668E-4 1.2207031E-4 2.593994E-4c0 9.1552734E-5 -3.0517578E-5 1.9836426E-4 -1.2207031E-4 2.593994E-4l-154.07358 164.91257c-2.6816406 2.8703003 -7.0295334 2.8703918 -9.711281 1.8310547E-4l-24.278122 -25.98413l0 0c-1.296997E-4 -1.5258789E-4 -1.296997E-4 -3.6621094E-4 0 -5.187988E-4l154.07361 -164.91258l0 0c2.6816406 -2.8703003 7.0295258 -2.8703766 9.711273 -1.8310547E-4z" fill-rule="evenodd"/><path fill="#999999" d="m139.00084 163.2547l24.278122 25.984146c6.1035156E-5 6.1035156E-5 1.0681152E-4 1.6784668E-4 1.0681152E-4 2.593994E-4c0 9.1552734E-5 -4.5776367E-5 1.8310547E-4 -1.0681152E-4 2.593994E-4l-129.2864 138.39268c-2.6815243 2.8704224 -7.029318 2.8706055 -9.711069 3.9672852E-4l-24.278118 -25.984161l0 0c-1.3408484E-4 -1.2207031E-4 -1.3409392E-4 -3.6621094E-4 -2.0256266E-8 -5.187988E-4l129.2864 -138.39268l0 0c2.6815186 -2.870407 7.029312 -2.8705902 9.71106 -3.8146973E-4z" fill-rule="evenodd"/><path fill="#999999" d="m458.4066 501.65118l-23.910675 25.590454c-6.1035156E-5 6.1035156E-5 -1.5258789E-4 1.2207031E-4 -2.4414062E-4 1.2207031E-4c-9.1552734E-5 0 -1.8310547E-4 -6.1035156E-5 -2.4414062E-4 -1.2207031E-4l-186.4922 -199.54382c-2.6415253 -2.8263855 -2.6418152 -7.4091187 -6.5612793E-4 -10.235809l23.910675 -25.590454l0 0c1.2207031E-4 -1.5258789E-4 3.3569336E-4 -1.5258789E-4 4.8828125E-4 0l186.49222 199.5438l0 0c2.64151 2.8263855 2.6417847 7.4091187 6.4086914E-4 10.23584z" fill-rule="evenodd"/><path fill="#999999" d="m525.8393 59.34074l-290.73447 311.1026c-6.5612793E-4 7.019043E-4 -0.0015411377 0.0010986328 -0.002456665 0.0010986328c-9.3078613E-4 0 -0.0018157959 -3.9672852E-4 -0.0024719238 -0.0010986328l-23.170837 -24.80304c-2.5599823 -2.739746 -2.5598145 -7.1815796 3.6621094E-4 -9.921112l290.73444 -311.1026l0 0c0.001373291 -0.001455307 0.0035705566 -0.001455307 0.00491333 0l23.170868 24.80305l0 0c2.5599976 2.7397346 2.5598145 7.181572 -3.6621094E-4 9.92112z" fill-rule="evenodd"/><path fill="#999999" d="m444.33322 396.85046l-96.3096 103.07077c-2.1362305E-4 2.4414062E-4 -5.187988E-4 3.9672852E-4 -8.239746E-4 3.9672852E-4c-3.3569336E-4 0 -6.1035156E-4 -1.5258789E-4 -8.544922E-4 -3.9672852E-4l-23.174072 -24.80304c-2.5599976 -2.739746 -2.559967 -7.1817017 3.0517578E-5 -9.921417l96.3096 -103.0708l0 0c4.5776367E-4 -4.8828125E-4 0.0012207031 -4.8828125E-4 0.0016784668 0l23.174072 24.80304l0 0c2.5599976 2.739746 2.559967 7.181732 -3.0517578E-5 9.921448z" fill-rule="evenodd"/><path fill="#999999" d="m440.49597 393.23898l-23.910675 25.590454c-6.1035156E-5 6.1035156E-5 -1.5258789E-4 9.1552734E-5 -2.4414062E-4 9.1552734E-5c-9.1552734E-5 0 -1.5258789E-4 -3.0517578E-5 -2.1362305E-4 -9.1552734E-5l-102.24042 -109.40195c-2.6414185 -2.8264465 -2.6416626 -7.4092407 -4.8828125E-4 -10.235962l23.910675 -25.590454l0 0c1.2207031E-4 -1.2207031E-4 3.3569336E-4 -1.2207031E-4 4.5776367E-4 0l102.24039 109.40195l0 0c2.641449 2.8264465 2.6416626 7.4092407 5.187988E-4 10.235962z" fill-rule="evenodd"/><path fill="#999999" d="m617.2731 34.72482l-279.5853 299.22815c-6.4086914E-4 6.713867E-4 -0.0014953613 0.0010681152 -0.002380371 0.0010681152c-8.8500977E-4 0 -0.001739502 -3.9672852E-4 -0.0023498535 -0.0010681152l-23.171051 -24.80304c-2.559967 -2.739746 -2.560028 -7.1817627 -9.1552734E-5 -9.92157l279.58533 -299.22815l0 0c0.0012817383 -0.0013999911 0.0034179688 -0.0014000118 0.004699707 -4.627509E-8l23.17102 24.803051l0 0c2.5599976 2.7397346 2.5600586 7.1817627 1.2207031E-4 9.921549z" fill-rule="evenodd"/><path fill="#999999" d="m610.69775 491.53836l-26.089111 27.086517c-6.1035156E-5 6.1035156E-5 -1.8310547E-4 1.2207031E-4 -3.0517578E-4 1.2207031E-4c-6.1035156E-5 0 -1.8310547E-4 -6.1035156E-5 -2.4414062E-4 -1.2207031E-4l-203.75803 -211.5588c-2.8817139 -2.992035 -2.8816528 -7.843048 1.2207031E-4 -10.834991l26.089142 -27.086517l0 0c1.5258789E-4 -1.5258789E-4 3.9672852E-4 -1.5258789E-4 5.187988E-4 0l203.75803 211.5588l0 0c2.8817139 2.992035 2.8816528 7.843048 -1.2207031E-4 10.834991z" fill-rule="evenodd"/><path fill="#999999" d="m555.2966 132.12346l28.503784 26.430344c1.2207031E-4 7.6293945E-5 1.2207031E-4 1.6784668E-4 1.2207031E-4 2.593994E-4c0 1.0681152E-4 0 2.1362305E-4 -6.1035156E-5 2.746582E-4l-170.2821 170.28154c-3.0361633 3.0361633 -8.049835 3.1307373 -11.198364 0.2112732l-28.503815 -26.430359l0 0c-1.5258789E-4 -1.5258789E-4 -1.5258789E-4 -3.9672852E-4 0 -5.493164E-4l170.28207 -170.28151l0 0c3.0361328 -3.0361633 8.049805 -3.1307526 11.198364 -0.2112732z" fill-rule="evenodd"/><path fill="#999999" d="m619.7479 434.06583l-23.910706 25.590454c-6.1035156E-5 6.1035156E-5 -1.2207031E-4 9.1552734E-5 -2.4414062E-4 9.1552734E-5c-6.1035156E-5 0 -1.2207031E-4 -3.0517578E-5 -1.8310547E-4 -9.1552734E-5l-142.08264 -152.01642c-2.6416016 -2.826294 -2.6419678 -7.4089355 -7.9345703E-4 -10.235657l23.910645 -25.590454l0 0c1.5258789E-4 -1.2207031E-4 3.6621094E-4 -1.2207031E-4 4.8828125E-4 0l142.08258 152.01642l0 0c2.6416626 2.826294 2.6420288 7.4089355 8.544922E-4 10.235657z" fill-rule="evenodd"/><path fill="#999999" d="m585.19696 313.77725l-45.91638 49.14908c-6.1035156E-5 1.2207031E-4 -2.4414062E-4 1.8310547E-4 -4.272461E-4 1.8310547E-4c-1.2207031E-4 0 -3.0517578E-4 -6.1035156E-5 -3.6621094E-4 -1.8310547E-4l-23.174927 -24.80304c-2.5599976 -2.739746 -2.5601807 -7.1819153 -4.272461E-4 -9.921875l45.91632 -49.14908l0 0c2.4414062E-4 -2.746582E-4 6.1035156E-4 -2.746582E-4 8.544922E-4 0l23.174927 24.80304l0 0c2.5599976 2.739746 2.5601807 7.1819153 4.272461E-4 9.921875z" fill-rule="evenodd"/><path fill="#999999" d="m643.09705 372.8241l-23.910645 25.590454c-6.1035156E-5 6.1035156E-5 -1.2207031E-4 1.2207031E-4 -2.4414062E-4 1.2207031E-4c-6.1035156E-5 0 -1.8310547E-4 -6.1035156E-5 -2.4414062E-4 -1.2207031E-4l-120.85431 -129.30768c-2.641571 -2.8263245 -2.6419067 -7.409027 -7.6293945E-4 -10.235718l23.910675 -25.590454l0 0c1.2207031E-4 -1.5258789E-4 3.6621094E-4 -1.5258789E-4 4.8828125E-4 0l120.85431 129.30768l0 0c2.6416016 2.8263245 2.6419067 7.409027 7.324219E-4 10.235718z" fill-rule="evenodd"/><path fill="#999999" d="m627.0342 320.7007l-22.09967 -19.18628c-6.1035156E-5 -6.1035156E-5 -6.1035156E-5 -1.2207031E-4 -6.1035156E-5 -1.8310547E-4c0 -9.1552734E-5 0 -1.5258789E-4 6.1035156E-5 -2.1362305E-4l207.27747 -205.60968c2.295044 -2.2766342 6.1345215 -2.4041672 8.575623 -0.2848587l22.09967 19.186272l0 0c1.2207031E-4 1.0681152E-4 1.2207031E-4 2.822876E-4 0 3.9672852E-4l-207.2774 205.60966l0 0c-2.295105 2.2766418 -6.1345825 2.4041748 -8.575684 0.2848816z" fill-rule="evenodd"/><path fill="#999999" d="m656.6485 355.62198l-22.09967 -19.18628c-6.1035156E-5 -6.1035156E-5 -6.1035156E-5 -1.2207031E-4 -6.1035156E-5 -1.8310547E-4c-6.1035156E-5 -9.1552734E-5 0 -1.5258789E-4 6.1035156E-5 -2.1362305E-4l67.81323 -67.278625c2.2948608 -2.276825 6.1342163 -2.4045105 8.575317 -0.2852173l22.09967 19.18628l0 0c1.2207031E-4 1.2207031E-4 1.2207031E-4 3.0517578E-4 0 3.9672852E-4l-67.81323 67.278625l0 0c-2.2949219 2.276825 -6.1342163 2.4045105 -8.575317 0.2852173z" fill-rule="evenodd"/><path fill="#999999" d="m1016.624 471.7052l-25.576782 27.552856c-6.1035156E-5 9.1552734E-5 -1.8310547E-4 1.2207031E-4 -2.4414062E-4 1.2207031E-4c-1.2207031E-4 0 -1.8310547E-4 -3.0517578E-5 -2.4414062E-4 -1.2207031E-4l-249.6878 -249.71445c-2.9362183 -2.9365234 -3.026184 -7.7842712 -0.20098877 -10.827759l25.576782 -27.552872l0 0c1.2207031E-4 -1.5258789E-4 3.6621094E-4 -1.5258789E-4 4.8828125E-4 -1.5258789E-5l249.6878 249.71448l0 0c2.9362183 2.9365234 3.026184 7.7842712 0.20098877 10.827759z" fill-rule="evenodd"/><path fill="#999999" d="m867.52966 127.02531l27.914001 27.054985c6.1035156E-5 7.6293945E-5 1.2207031E-4 1.6784668E-4 1.2207031E-4 2.746582E-4c0 9.1552734E-5 -6.1035156E-5 1.9836426E-4 -1.2207031E-4 2.593994E-4l-124.02667 118.66164c-3.1026611 2.9684448 -8.117432 2.9522095 -11.200745 -0.0362854l-27.914062 -27.054977l0 0c-1.2207031E-4 -1.5258789E-4 -1.2207031E-4 -3.8146973E-4 0 -5.340576E-4l124.02667 -118.66162l0 0c3.1026611 -2.96846 8.117432 -2.9522247 11.200806 0.036262512z" fill-rule="evenodd"/><path fill="#999999" d="m992.0235 259.7987l-26.430359 28.503815c-6.1035156E-5 6.1035156E-5 -1.8310547E-4 1.2207031E-4 -2.4414062E-4 1.2207031E-4c-1.2207031E-4 0 -2.4414062E-4 -3.0517578E-5 -3.0517578E-4 -1.2207031E-4l-118.438965 -118.439545c-3.0361938 -3.0361633 -3.1307983 -8.04985 -0.21130371 -11.198364l26.430359 -28.50383l0 0c1.2207031E-4 -1.5258789E-4 3.6621094E-4 -1.5258789E-4 5.493164E-4 0l118.438965 118.439545l0 0c3.0361938 3.0361633 3.1307983 8.04985 0.21130371 11.1983795z" fill-rule="evenodd"/><path fill="#999999" d="m1173.0472 258.70358l1.4698486 38.871216c0 1.2207031E-4 -1.2207031E-4 2.1362305E-4 -1.2207031E-4 2.746582E-4c-1.2207031E-4 9.1552734E-5 -2.4414062E-4 1.2207031E-4 -2.4414062E-4 1.2207031E-4l-359.1803 -3.9672852E-4c-4.296753 0 -7.911621 -3.480713 -8.073975 -7.774414l-1.4697876 -38.871246l0 0c0 -2.1362305E-4 1.2207031E-4 -3.9672852E-4 3.6621094E-4 -3.9672852E-4l359.18024 3.9672852E-4l0 0c4.296753 0 7.911621 3.4807281 8.073975 7.7744446z" fill-rule="evenodd"/><path fill="#999999" d="m603.27545 275.21515l-22.09961 -19.18628c-6.1035156E-5 -6.1035156E-5 -1.2207031E-4 -1.2207031E-4 -1.2207031E-4 -2.1362305E-4c0 -6.1035156E-5 0 -1.2207031E-4 6.1035156E-5 -1.8310547E-4l192.3169 -190.77498c2.295044 -2.2766647 6.1345215 -2.4042282 8.575623 -0.28491974l22.09967 19.186272l0 0c1.2207031E-4 1.0681152E-4 1.2207031E-4 2.822876E-4 0 3.9672852E-4l-192.3169 190.77496l0 0c-2.295044 2.2766724 -6.1344604 2.4042358 -8.575623 0.28494263z" fill-rule="evenodd"/><path fill="#999999" d="m679.6613 339.93994l-20.05243 21.28601c-6.1035156E-5 6.1035156E-5 -1.2207031E-4 9.1552734E-5 -1.8310547E-4 9.1552734E-5c-6.1035156E-5 0 -1.8310547E-4 -3.0517578E-5 -2.4414062E-4 -9.1552734E-5l-84.17853 -89.379974c-2.2146606 -2.351532 -2.2144165 -6.1638794 5.493164E-4 -8.515137l20.05243 -21.285995l0 0c1.2207031E-4 -1.0681152E-4 3.0517578E-4 -1.0681152E-4 4.272461E-4 0l84.17853 89.37999l0 0c2.2146606 2.351532 2.2144165 6.1638794 -5.493164E-4 8.515106z" fill-rule="evenodd"/><defs><radialGradient id="p.2" gradientUnits="userSpaceOnUse" gradientTransform="matrix(-4.3920406598860104 4.700592364044548 -4.700592364044548 -4.3920406598860104 0.0 0.0)" spreadMethod="pad" cx="23.074509466149152" cy="-37.74732473360821" fx="23.074509466149152" fy="-37.74732473360821" r="4.700592517852783"><stop offset="0.0" stop-color="#4d4d4d"/><stop offset="1.0" stop-color="#000000"/></radialGradient></defs><path fill="url(#p.2)" d="m99.7074 278.74002l-24.05774 25.747833c-6.1035156E-5 9.1552734E-5 -1.5258789E-4 1.2207031E-4 -2.3651123E-4 1.2207031E-4c-9.1552734E-5 0 -1.7547607E-4 -3.0517578E-5 -2.4414062E-4 -1.2207031E-4l-23.175282 -24.80304c-2.5599823 -2.739746 -2.5600243 -7.1817627 -8.392334E-5 -9.921539l24.057735 -25.747849l0 0c1.296997E-4 -1.373291E-4 3.4332275E-4 -1.373291E-4 4.8065186E-4 0l23.175278 24.803055l0 0c2.55999 2.739746 2.560028 7.1817627 9.1552734E-5 9.921539z" fill-rule="evenodd"/><path fill="#000000" d="m1312.7704 278.74133l-24.05774 25.747833c0 9.1552734E-5 -1.2207031E-4 1.2207031E-4 -2.4414062E-4 1.2207031E-4c-1.2207031E-4 0 -1.2207031E-4 -3.0517578E-5 -2.4414062E-4 -1.2207031E-4l-23.175293 -24.80304c-2.5599365 -2.739746 -2.5600586 -7.1817627 -1.2207031E-4 -9.921539l24.05774 -25.747849l0 0c2.4414062E-4 -1.373291E-4 3.6621094E-4 -1.373291E-4 4.8828125E-4 0l23.175293 24.803055l0 0c2.5600586 2.739746 2.5600586 7.1817627 1.2207031E-4 9.921539z" fill-rule="evenodd"/></g></svg>